<?xml version="1.0" encoding="utf-8"?>
<!-- Generator: Adobe Illustrator 23.0.1, SVG Export Plug-In . SVG Version: 6.00 Build 0)  -->
<svg version="1.1" id="Layer_1" xmlns="http://www.w3.org/2000/svg" xmlns:xlink="http://www.w3.org/1999/xlink" x="0px" y="0px"
	 viewBox="0 0 100 100" style="enable-background:new 0 0 100 100;" xml:space="preserve">
<style type="text/css">
	.st0{fill:none;stroke:#FFFFFF;stroke-width:6;stroke-miterlimit:10;}
	.st1{fill:#FFFFFF;}
</style>
<circle class="st0" cx="50" cy="50" r="10"/>
<path class="st0" d="M25.3,14.2c-0.2-0.2-0.3-0.4-0.5-0.6c-0.4-0.5-0.8-0.9-1.2-1.3c-3.9-3.9-9.4-6.4-15.4-6.4v88.3
	c10.6,0,19.3-7.4,21.3-17.3c0.3-1.4,0.5-2.9,0.5-4.4v-7.3"/>
<line class="st0" x1="44.8" y1="41.5" x2="25.3" y2="14.2"/>
<path class="st0" d="M75.1,85.9c0.2,0.2,0.3,0.4,0.5,0.6c0.4,0.5,0.8,0.9,1.2,1.3c3.9,3.9,9.4,6.4,15.4,6.4V5.9
	c-10.6,0-19.3,7.4-21.3,17.4c-0.3,1.4-0.4,2.9-0.4,4.5V35"/>
<line class="st0" x1="55.6" y1="58.6" x2="75.1" y2="85.9"/>
<polygon class="st1" points="27.5,12.2 27.7,12.5 25.4,14.4 25,13.9 27.1,12.1 "/>
<polygon class="st1" points="72.9,87.9 72.7,87.6 74.9,85.6 75.3,85.8 75.4,86.4 73.9,88 "/>
</svg>
