<?xml version="1.0" encoding="utf-8"?>
<!-- Generator: Adobe Illustrator 23.0.1, SVG Export Plug-In . SVG Version: 6.00 Build 0)  -->
<svg version="1.1" xmlns="http://www.w3.org/2000/svg" xmlns:xlink="http://www.w3.org/1999/xlink" x="0px" y="0px"
	 viewBox="0 0 144.9 144.9" style="enable-background:new 0 0 144.9 144.9;" xml:space="preserve">
<style type="text/css">
	.st0{fill:#FFFFFF;}
	.st1{fill:none;stroke:#8150EB;stroke-width:6;stroke-miterlimit:10;}
	.st2{fill:#8150EB;}
</style>
<g id="Layer_2">
	<path class="st0" d="M112.7,144.9H32.1C14.4,144.9,0,130.5,0,112.7V32.1C0,14.4,14.4,0,32.1,0h80.6c17.7,0,32.1,14.4,32.1,32.1
		v80.6C144.9,130.5,130.5,144.9,112.7,144.9z"/>
</g>
<g id="Layer_1">
	<g>
		<circle class="st1" cx="72.2" cy="72.4" r="10"/>
		<path class="st1" d="M47.5,36.6c-0.2-0.2-0.3-0.4-0.5-0.6c-0.4-0.5-0.8-0.9-1.2-1.3c-3.9-3.9-9.4-6.4-15.4-6.4v88.3
			c10.6,0,19.3-7.4,21.3-17.3c0.3-1.4,0.5-2.9,0.5-4.4v-7.3"/>
		<line class="st1" x1="67" y1="63.9" x2="47.5" y2="36.6"/>
		<path class="st1" d="M97.3,108.3c0.2,0.2,0.3,0.4,0.5,0.6c0.4,0.5,0.8,0.9,1.2,1.3c3.9,3.9,9.4,6.4,15.4,6.4V28.3
			c-10.6,0-19.3,7.4-21.3,17.4c-0.3,1.4-0.4,2.9-0.4,4.5v7.2"/>
		<line class="st1" x1="77.8" y1="81" x2="97.3" y2="108.3"/>
		<polygon class="st2" points="49.7,34.6 49.9,34.9 47.6,36.8 47.2,36.3 49.3,34.5 		"/>
		<polygon class="st2" points="95.1,110.3 94.9,110 97.1,108 97.5,108.2 97.6,108.8 96.1,110.4 		"/>
	</g>
</g>
</svg>
