<?xml version="1.0" encoding="utf-8"?>
<!-- Generator: Adobe Illustrator 23.0.1, SVG Export Plug-In . SVG Version: 6.00 Build 0)  -->
<svg version="1.1" xmlns="http://www.w3.org/2000/svg" xmlns:xlink="http://www.w3.org/1999/xlink" x="0px" y="0px"
	 viewBox="0 0 20 20" style="enable-background:new 0 0 20 20;" xml:space="preserve">
<style type="text/css">
	.st0{display:none;}
	.st1{display:inline;fill:none;stroke:#FFFFFF;stroke-width:0.75;stroke-miterlimit:10;}
	.st2{display:inline;fill:none;stroke:#000000;stroke-miterlimit:10;}
	.st3{display:inline;fill:none;stroke:#FFFFFF;stroke-miterlimit:10;}
	.st4{display:inline;fill:#FFFFFF;}
	.st5{display:inline;fill:none;}
	.st6{display:inline;fill:#4269B2;}
	.st7{display:inline;fill:#EE2E2C;}
	.st8{display:inline;fill:#A02F21;}
	.st9{display:inline;fill:#E2E419;}
	.st10{display:inline;fill:#BAC633;}
	.st11{display:inline;fill:#3F499F;}
	.st12{fill:none;stroke:#000000;stroke-width:0.75;stroke-miterlimit:10;}
	.st13{display:inline;}
	.st14{font-family:'MyriadPro-Regular';}
	.st15{font-size:20.7682px;}
	.st16{font-size:20.7687px;}
</style>
<g id="pen" class="st0">
	<path class="st1" d="M14.09,19.75c0,0-0.03-3.48,2.39-7.62c0,0-3.59-2.62-5.79-9.85v8.54c0.11,0.02,1.13,0.2,1.64,1.19
		c0.48,0.94,0.1,1.84,0.05,1.95c-0.08,0.19-0.3,0.64-0.81,0.99c-0.55,0.37-1.09,0.39-1.29,0.39c-0.18,0-0.95,0-1.59-0.59
		c-0.43-0.39-0.58-0.85-0.64-1.06C8,13.56,7.76,12.53,8.44,11.64c0.51-0.65,1.2-0.82,1.4-0.86l-0.02-8.5c0,0-2.41,7.85-5.8,9.71
		c0,0,2.35,4.19,2.43,7.77H14.09z"/>
	<path class="st2" d="M3.53,5.8"/>
</g>
<g id="remind" class="st0">
	<path class="st3" d="M10.03,19.5c-2.72-0.03-3.08-2-3.08-2c-3.41-0.06-4.13-0.82-4.13-0.82c-0.13-0.1-1.2-0.99-1.12-2.35
		c0.03-0.59,0.27-1.04,0.43-1.28c1.5-2,2.09-3.55,2.33-4.63C4.5,8.21,4.63,7.9,4.7,7.32c0.33-2.97,0.96-3.4,0.96-3.4
		c0.81-1.12,2.22-1.58,2.22-1.58c0.24-1.83,1.86-1.9,2.15-1.89"/>
	<path class="st2" d="M16.15,3.75"/>
	<path class="st3" d="M8.75,10.21"/>
	<path class="st2" d="M4.83,12.11"/>
	<path class="st2" d="M4.31,13.71"/>
	<path class="st2" d="M6.08,15.99"/>
	<path class="st3" d="M9.97,0.45c0.29-0.01,1.91,0.06,2.15,1.89c0,0,1.41,0.46,2.22,1.58c0,0,0.63,0.43,0.96,3.4
		c0.07,0.58,0.2,0.9,0.24,1.11c0.24,1.08,0.83,2.63,2.33,4.63c0.16,0.24,0.4,0.69,0.43,1.28c0.08,1.36-0.99,2.25-1.12,2.35
		c0,0-0.72,0.76-4.13,0.82c0,0-0.37,1.97-3.08,2"/>
	<path class="st3" d="M11.87,10.21"/>
	<path class="st2" d="M15.51,12.11"/>
	<path class="st2" d="M16.03,13.71"/>
	<path class="st2" d="M14.55,16.09"/>
</g>
<g id="pass" class="st0">
	<path class="st2" d="M15.43,8.25h0.57c0.89,0,1.61,0.72,1.61,1.61v8.04c0,0.89-0.72,1.6-1.61,1.6H3.99c-0.89,0-1.61-0.71-1.61-1.6
		V9.86c0-0.89,0.72-1.61,1.61-1.61h0.57"/>
	<circle class="st4" cx="9.82" cy="12.53" r="1.22"/>
	<path class="st4" d="M9.81,12.67L9.81,12.67c-0.35,0-0.64,0.29-0.64,0.64v1.58c0,0.35,0.29,0.64,0.64,0.64h0
		c0.35,0,0.64-0.29,0.64-0.64v-1.58C10.45,12.96,10.17,12.67,9.81,12.67z"/>
	<path class="st2" d="M12.85,5.82v2.43H7.2V5.82c0-1.47,1.19-2.66,2.66-2.66h0.35C11.67,3.16,12.85,4.34,12.85,5.82z"/>
	<path class="st2" d="M15.43,5.94v2.3H4.57v-2.3C4.57,2.94,7,0.5,10,0.5c1.5,0,2.86,0.61,3.84,1.6C14.82,3.08,15.43,4.44,15.43,5.94
		z"/>
</g>
<g id="voice" class="st0">
	<path class="st5" d="M10.23,15.13L10.23,15.13c-2.07,0-3.75-1.68-3.75-3.75V4.31c0-2.07,1.68-3.75,3.75-3.75h0
		c2.07,0,3.75,1.68,3.75,3.75v7.07C13.98,13.45,12.3,15.13,10.23,15.13z"/>
	<circle class="st4" cx="4.55" cy="9.7" r="0.5"/>
	<path class="st3" d="M4.56,9.67c-0.13,3.23,2.33,5.92,5.28,6.12c3.2,0.22,6.17-2.56,6.07-6.07"/>
	<circle class="st4" cx="15.91" cy="9.72" r="0.5"/>
	<path class="st3" d="M10.23,13.85L10.23,13.85c-1.74,0-3.14-1.41-3.14-3.14V3.65c0-1.74,1.41-3.14,3.14-3.14h0
		c1.74,0,3.14,1.41,3.14,3.14v7.05C13.37,12.44,11.96,13.85,10.23,13.85z"/>
	<rect x="9.69" y="16.09" class="st4" width="1.09" height="2.83"/>
	<path class="st4" d="M7.56,19.46L7.56,19.46c0-0.3,0.24-0.54,0.54-0.54h4.26c0.3,0,0.54,0.24,0.54,0.54l0,0
		c0,0.3-0.24,0.54-0.54,0.54H8.1C7.8,20,7.56,19.76,7.56,19.46z"/>
</g>
<g id="stages" class="st0">
	<path class="st3" d="M5.76,7.9H1.97C1.16,7.9,0.5,7.24,0.5,6.43V1.96c0-0.81,0.66-1.47,1.47-1.47h5.55c0.81,0,1.47,0.66,1.47,1.47
		V6.3"/>
	<path class="st3" d="M14.24,12.13V7.77c0-0.81-0.65-1.47-1.47-1.47H8.99H7.23c-0.82,0-1.47,0.66-1.47,1.47V7.9v4.33
		c0,0.81,0.65,1.47,1.47,1.47h3.82"/>
	<path class="st3" d="M18.07,19.53h-5.55c-0.81,0-1.47-0.66-1.47-1.47V13.6c0-0.81,0.66-1.47,1.47-1.47h5.55
		c0.81,0,1.47,0.66,1.47,1.47v4.46C19.54,18.87,18.88,19.53,18.07,19.53z"/>
	<path class="st4" d="M10.06,9.14L10.06,9.14c-0.22,0-0.41-0.18-0.41-0.41V7.95c0-0.22,0.18-0.41,0.41-0.41h0
		c0.22,0,0.41,0.18,0.41,0.41v0.79C10.46,8.96,10.28,9.14,10.06,9.14z"/>
	<path class="st4" d="M12.52,10.05L12.52,10.05c0,0.22-0.18,0.41-0.41,0.41h-0.79c-0.22,0-0.41-0.18-0.41-0.41v0
		c0-0.22,0.18-0.41,0.41-0.41l0.79,0C12.34,9.65,12.52,9.83,12.52,10.05z"/>
	<path class="st4" d="M7.59,10.05L7.59,10.05c0-0.22,0.18-0.41,0.41-0.41h0.79c0.22,0,0.41,0.18,0.41,0.41v0
		c0,0.22-0.18,0.41-0.41,0.41H8C7.77,10.46,7.59,10.28,7.59,10.05z"/>
	<path class="st4" d="M9.42,9.43L9.42,9.43c-0.16,0.16-0.41,0.16-0.57,0L8.3,8.88c-0.16-0.16-0.16-0.41,0-0.57l0,0
		c0.16-0.16,0.41-0.16,0.57,0l0.56,0.56C9.58,9.02,9.58,9.28,9.42,9.43z"/>
	<path class="st4" d="M11.77,11.78L11.77,11.78c-0.16,0.16-0.41,0.16-0.57,0l-0.56-0.56c-0.16-0.16-0.16-0.41,0-0.57v0
		c0.16-0.16,0.41-0.16,0.57,0l0.56,0.56C11.93,11.37,11.93,11.62,11.77,11.78z"/>
	<path class="st4" d="M10.06,12.46L10.06,12.46c-0.22,0-0.41-0.18-0.41-0.41v-0.79c0-0.22,0.18-0.41,0.41-0.41h0
		c0.22,0,0.41,0.18,0.41,0.41v0.79C10.46,12.28,10.28,12.46,10.06,12.46z"/>
	<path class="st4" d="M8.36,11.78L8.36,11.78c-0.16-0.16-0.16-0.41,0-0.57l0.56-0.56c0.16-0.16,0.41-0.16,0.57,0l0,0
		c0.16,0.16,0.16,0.41,0,0.57l-0.56,0.56C8.77,11.94,8.51,11.94,8.36,11.78z"/>
	<path class="st4" d="M14.28,17.63L14.28,17.63c-0.23-0.23-0.23-0.61,0-0.84l2.41-2.41c0.23-0.23,0.61-0.23,0.84,0l0,0
		c0.23,0.23,0.23,0.61,0,0.84l-2.41,2.41C14.88,17.86,14.51,17.86,14.28,17.63z"/>
	<path class="st4" d="M15.12,17.62L15.12,17.62c-0.23,0.23-0.61,0.23-0.84,0l-0.77-0.77c-0.23-0.23-0.23-0.61,0-0.84l0,0
		c0.23-0.23,0.61-0.23,0.84,0l0.77,0.77C15.35,17.01,15.35,17.39,15.12,17.62z"/>
</g>
<g id="color" class="st0">
	<circle class="st6" cx="14.37" cy="13.57" r="5.15"/>
	<circle class="st7" cx="10.48" cy="5.94" r="5.15"/>
	<path class="st8" d="M15.63,5.93c0,2.85-2.31,5.16-5.16,5.16c-1.54,0-2.93-0.68-3.86-1.76c0.89,0.74,2.03,1.18,3.28,1.18
		c2.85,0,5.15-2.31,5.15-5.16c0-1.29-0.48-2.48-1.28-3.38C14.9,2.91,15.63,4.34,15.63,5.93z"/>
	<circle class="st9" cx="5.63" cy="13.57" r="5.15"/>
	<path class="st10" d="M10.78,13.56c0,2.85-2.31,5.16-5.16,5.16c-1.54,0-2.93-0.68-3.86-1.76c0.89,0.74,2.03,1.18,3.28,1.18
		c2.85,0,5.15-2.31,5.15-5.16c0-1.29-0.48-2.48-1.28-3.38C10.05,10.54,10.78,11.97,10.78,13.56z"/>
	<path class="st11" d="M19.5,13.56c0,2.85-2.31,5.16-5.16,5.16c-1.54,0-2.93-0.68-3.86-1.76c0.89,0.74,2.03,1.18,3.28,1.18
		c2.85,0,5.15-2.31,5.15-5.16c0-1.29-0.48-2.48-1.28-3.38C18.77,10.54,19.5,11.97,19.5,13.56z"/>
</g>
<g id="color_black">
	<path class="st12" d="M19.52,13.81c0,2.85-2.3,5.16-5.15,5.16c-1.85,0-3.47-0.97-4.37-2.44c0.5-0.79,0.78-1.72,0.78-2.72
		c0-0.9-0.24-1.76-0.64-2.49c-0.09,0-0.17,0-0.26-0.02c0.03-0.07,0.07-0.14,0.12-0.2c0.9-1.46,2.52-2.44,4.37-2.44
		c0.2,0,0.4,0.01,0.6,0.04C17.54,8.99,19.52,11.17,19.52,13.81z"/>
	<path class="st12" d="M14.97,8.7c0.42-0.74,0.66-1.6,0.66-2.51c0-2.85-2.31-5.16-5.15-5.16c-2.85,0-5.16,2.31-5.16,5.16
		c0,0.9,0.24,1.76,0.64,2.49c0.79,1.42,2.23,2.43,3.92,2.62c0.09,0.02,0.17,0.02,0.26,0.02"/>
	<path class="st12" d="M5.96,8.68C5.85,8.66,5.74,8.66,5.63,8.66c-2.85,0-5.15,2.31-5.15,5.15c0,2.85,2.3,5.16,5.15,5.16
		c1.85,0,3.47-0.97,4.37-2.44c0.5-0.79,0.78-1.72,0.78-2.72c0-0.9-0.24-1.76-0.64-2.49c-0.05-0.08-0.09-0.15-0.14-0.22"/>
</g>
<g id="text" class="st0">
	<text transform="matrix(1 0 0 1 -0.2886 16.4705)" class="st13 st14 st15">A</text>
	<text transform="matrix(1 0 0 1 10.9106 16.4686)" class="st13 st14 st16">a</text>
</g>
</svg>
