<?xml version="1.0" encoding="utf-8"?>
<!-- Generator: Adobe Illustrator 23.0.1, SVG Export Plug-In . SVG Version: 6.00 Build 0)  -->
<svg version="1.1" id="Layer_1" xmlns="http://www.w3.org/2000/svg" xmlns:xlink="http://www.w3.org/1999/xlink" x="0px" y="0px"
	 viewBox="0 0 20 20" style="enable-background:new 0 0 20 20;" xml:space="preserve">
<style type="text/css">
	.st0{display:none;}
	.st1{display:inline;fill:none;stroke:#FFFFFF;stroke-width:0.75;stroke-miterlimit:10;}
	.st2{display:inline;fill:none;stroke:#000000;stroke-miterlimit:10;}
	.st3{display:inline;fill:none;stroke:#FFFFFF;stroke-miterlimit:10;}
	.st4{display:inline;fill:#FFFFFF;}
	.st5{display:inline;fill:none;}
	.st6{display:inline;fill:#4269B2;}
	.st7{display:inline;fill:#EE2E2C;}
	.st8{display:inline;fill:#A02F21;}
	.st9{display:inline;fill:#E2E419;}
	.st10{display:inline;fill:#BAC633;}
	.st11{display:inline;fill:#3F499F;}
	.st12{fill:#FFFFFF;}
	.st13{font-family:'ArialMT';}
	.st14{font-size:18.1176px;}
	.st15{font-size:18.1145px;}
</style>
<g id="pen" class="st0">
	<path class="st1" d="M14.1,19.8c0,0,0-3.5,2.4-7.6c0,0-3.6-2.6-5.8-9.9v8.5c0.1,0,1.1,0.2,1.6,1.2c0.5,0.9,0.1,1.8,0.1,1.9
		c-0.1,0.2-0.3,0.6-0.8,1c-0.6,0.4-1.1,0.4-1.3,0.4s-0.9,0-1.6-0.6c-0.4-0.4-0.6-0.9-0.6-1.1c0-0.1-0.3-1.2,0.4-2.1
		c0.5-0.6,1.2-0.8,1.4-0.9V2.1c0,0-2.4,7.9-5.8,9.7c0,0,2.3,4.2,2.4,7.8L14.1,19.8L14.1,19.8z"/>
	<path class="st2" d="M3.5,5.8"/>
</g>
<g id="remind" class="st0">
	<path class="st3" d="M10,19.5c-2.7,0-3.1-2-3.1-2c-3.4-0.1-4.1-0.8-4.1-0.8c-0.1-0.1-1.2-1-1.1-2.4c0-0.6,0.3-1,0.4-1.3
		c1.5-2,2.1-3.6,2.3-4.6c0-0.2,0.2-0.5,0.2-1.1c0.3-3,1-3.4,1-3.4c0.8-1.1,2.2-1.6,2.2-1.6C8.1,0.5,9.7,0.4,10,0.5"/>
	<path class="st2" d="M16.1,3.8"/>
	<path class="st3" d="M8.8,10.2"/>
	<path class="st2" d="M4.8,12.1"/>
	<path class="st2" d="M4.3,13.7"/>
	<path class="st2" d="M6.1,16"/>
	<path class="st3" d="M10,0.4c0.3,0,1.9,0.1,2.2,1.9c0,0,1.4,0.5,2.2,1.6c0,0,0.6,0.4,1,3.4c0.1,0.6,0.2,0.9,0.2,1.1
		c0.2,1.1,0.8,2.6,2.3,4.6c0.2,0.2,0.4,0.7,0.4,1.3c0.1,1.4-1,2.3-1.1,2.4c0,0-0.7,0.8-4.1,0.8c0,0-0.4,2-3.1,2"/>
	<path class="st3" d="M11.9,10.2"/>
	<path class="st2" d="M15.5,12.1"/>
	<path class="st2" d="M16,13.7"/>
	<path class="st2" d="M14.6,16.1"/>
</g>
<g id="pass" class="st0">
	<path class="st2" d="M15.4,8.3H16c0.9,0,1.6,0.7,1.6,1.6v8c0,0.9-0.7,1.6-1.6,1.6H4c-0.9,0-1.6-0.7-1.6-1.6v-8C2.4,9,3.1,8.3,4,8.3
		h0.6"/>
	<circle class="st4" cx="9.8" cy="12.5" r="1.2"/>
	<path class="st4" d="M9.8,12.7L9.8,12.7c-0.4,0-0.6,0.3-0.6,0.6v1.6c0,0.4,0.3,0.6,0.6,0.6l0,0c0.4,0,0.6-0.3,0.6-0.6v-1.6
		C10.4,13,10.2,12.7,9.8,12.7z"/>
	<path class="st2" d="M12.9,5.8v2.4H7.2V5.8c0-1.5,1.2-2.7,2.7-2.7h0.4C11.7,3.2,12.9,4.3,12.9,5.8z"/>
	<path class="st2" d="M15.4,5.9v2.3H4.6V5.9c0-3,2.4-5.4,5.4-5.4c1.5,0,2.9,0.6,3.8,1.6C14.8,3.1,15.4,4.4,15.4,5.9z"/>
</g>
<g id="voice" class="st0">
	<path class="st5" d="M10.2,15.1L10.2,15.1c-2.1,0-3.8-1.7-3.8-3.8v-7c0-2.1,1.7-3.8,3.8-3.8l0,0c2.1,0,3.8,1.7,3.8,3.8v7.1
		C14,13.4,12.3,15.1,10.2,15.1z"/>
	<circle class="st4" cx="4.6" cy="9.7" r="0.5"/>
	<path class="st3" d="M4.6,9.7c-0.1,3.2,2.3,5.9,5.3,6.1c3.1,0.2,6.1-2.6,6-6.1"/>
	<circle class="st4" cx="15.9" cy="9.7" r="0.5"/>
	<path class="st3" d="M10.2,13.9L10.2,13.9c-1.7,0-3.1-1.4-3.1-3.1V3.7c0-1.7,1.4-3.1,3.1-3.1l0,0c1.7,0,3.1,1.4,3.1,3.1v7.1
		C13.4,12.4,12,13.9,10.2,13.9z"/>
	<rect x="9.7" y="16.1" class="st4" width="1.1" height="2.8"/>
	<path class="st4" d="M7.6,19.5L7.6,19.5c0-0.3,0.2-0.5,0.5-0.5h4.3c0.3,0,0.5,0.2,0.5,0.5l0,0c0,0.3-0.2,0.5-0.5,0.5H8.1
		C7.8,20,7.6,19.8,7.6,19.5z"/>
</g>
<g id="stages" class="st0">
	<path class="st3" d="M5.8,7.9H2c-0.8,0-1.5-0.7-1.5-1.5V2c0-0.8,0.7-1.5,1.5-1.5h5.6C8.3,0.5,9,1.2,9,2v4.3"/>
	<path class="st3" d="M14.2,12.1V7.8c0-0.8-0.6-1.5-1.5-1.5H9H7.2C6.4,6.3,5.8,7,5.8,7.8v0.1v4.3c0,0.8,0.7,1.5,1.5,1.5h3.8"/>
	<path class="st3" d="M18.1,19.5h-5.6c-0.8,0-1.5-0.7-1.5-1.5v-4.5c0-0.8,0.7-1.5,1.5-1.5h5.6c0.8,0,1.5,0.7,1.5,1.5V18
		C19.5,18.9,18.9,19.5,18.1,19.5z"/>
	<path class="st4" d="M10.1,9.1L10.1,9.1C9.8,9.1,9.7,9,9.7,8.7V7.9c0-0.2,0.2-0.4,0.4-0.4l0,0c0.2,0,0.4,0.2,0.4,0.4v0.8
		C10.5,9,10.3,9.1,10.1,9.1z"/>
	<path class="st4" d="M12.5,10.1L12.5,10.1c0,0.2-0.2,0.4-0.4,0.4h-0.8c-0.2,0-0.4-0.2-0.4-0.4l0,0c0-0.2,0.2-0.4,0.4-0.4h0.8
		C12.3,9.6,12.5,9.8,12.5,10.1z"/>
	<path class="st4" d="M7.6,10.1L7.6,10.1c0-0.2,0.2-0.4,0.4-0.4h0.8c0.2,0,0.4,0.2,0.4,0.4l0,0c0,0.2-0.2,0.4-0.4,0.4H8
		C7.8,10.5,7.6,10.3,7.6,10.1z"/>
	<path class="st4" d="M9.4,9.4L9.4,9.4C9.3,9.6,9,9.6,8.9,9.4L8.3,8.9c-0.2-0.2-0.2-0.4,0-0.6l0,0c0.2-0.2,0.4-0.2,0.6,0l0.6,0.6
		C9.6,9,9.6,9.3,9.4,9.4z"/>
	<path class="st4" d="M11.8,11.8L11.8,11.8c-0.2,0.2-0.4,0.2-0.6,0l-0.6-0.6c-0.2-0.2-0.2-0.4,0-0.6l0,0c0.2-0.2,0.4-0.2,0.6,0
		l0.6,0.6C11.9,11.4,11.9,11.6,11.8,11.8z"/>
	<path class="st4" d="M10.1,12.5L10.1,12.5c-0.2,0-0.4-0.2-0.4-0.4v-0.8c0-0.2,0.2-0.4,0.4-0.4l0,0c0.2,0,0.4,0.2,0.4,0.4v0.8
		C10.5,12.3,10.3,12.5,10.1,12.5z"/>
	<path class="st4" d="M8.4,11.8L8.4,11.8c-0.2-0.2-0.2-0.4,0-0.6L9,10.6c0.2-0.2,0.4-0.2,0.6,0l0,0c0.2,0.2,0.2,0.4,0,0.6L9,11.8
		C8.8,11.9,8.5,11.9,8.4,11.8z"/>
	<path class="st4" d="M14.3,17.6L14.3,17.6c-0.2-0.2-0.2-0.6,0-0.8l2.4-2.4c0.2-0.2,0.6-0.2,0.8,0l0,0c0.2,0.2,0.2,0.6,0,0.8
		l-2.4,2.4C14.9,17.9,14.5,17.9,14.3,17.6z"/>
	<path class="st4" d="M15.1,17.6L15.1,17.6c-0.2,0.2-0.6,0.2-0.8,0l-0.8-0.8c-0.2-0.2-0.2-0.6,0-0.8l0,0c0.2-0.2,0.6-0.2,0.8,0
		l0.8,0.8C15.4,17,15.4,17.4,15.1,17.6z"/>
</g>
<g id="color" class="st0">
	<circle class="st6" cx="14.4" cy="13.6" r="5.2"/>
	<circle class="st7" cx="10.5" cy="5.9" r="5.2"/>
	<path class="st8" d="M15.6,5.9c0,2.8-2.3,5.2-5.2,5.2c-1.5,0-2.9-0.7-3.9-1.8c0.9,0.7,2,1.2,3.3,1.2c2.8,0,5.2-2.3,5.2-5.2
		c0-1.3-0.5-2.5-1.3-3.4C14.9,2.9,15.6,4.3,15.6,5.9z"/>
	<circle class="st9" cx="5.6" cy="13.6" r="5.2"/>
	<path class="st10" d="M10.8,13.6c0,2.8-2.3,5.2-5.2,5.2c-1.5,0-2.9-0.7-3.9-1.8c0.9,0.7,2,1.2,3.3,1.2c2.8,0,5.2-2.3,5.2-5.2
		c0-1.3-0.5-2.5-1.3-3.4C10.1,10.5,10.8,12,10.8,13.6z"/>
	<path class="st11" d="M19.5,13.6c0,2.8-2.3,5.2-5.2,5.2c-1.5,0-2.9-0.7-3.9-1.8c0.9,0.7,2,1.2,3.3,1.2c2.9,0,5.1-2.3,5.1-5.2
		c0-1.3-0.5-2.5-1.3-3.4C18.8,10.5,19.5,12,19.5,13.6z"/>
</g>
<text transform="matrix(1 0 0 1 -0.2133 16.4082)" class="st12 st13 st14">A</text>
<text transform="matrix(1 0 0 1 11.8859 16.4082)" class="st12 st13 st15">a</text>
</svg>
