<?xml version="1.0" encoding="utf-8"?>
<!-- Generator: Adobe Illustrator 23.0.1, SVG Export Plug-In . SVG Version: 6.00 Build 0)  -->
<svg version="1.1" xmlns="http://www.w3.org/2000/svg" xmlns:xlink="http://www.w3.org/1999/xlink" x="0px" y="0px"
	 viewBox="0 0 20 20" style="enable-background:new 0 0 20 20;" xml:space="preserve">
<style type="text/css">
	.st0{fill:none;stroke:#FFFFFF;stroke-width:0.75;stroke-miterlimit:10;}
	.st1{fill:none;stroke:#000000;stroke-miterlimit:10;}
	.st2{display:none;}
	.st3{display:inline;fill:none;stroke:#FFFFFF;stroke-width:0.5;stroke-miterlimit:10;}
	.st4{display:inline;fill:none;stroke:#000000;stroke-miterlimit:10;}
	.st5{display:inline;fill:none;stroke:#FFFFFF;stroke-miterlimit:10;}
	.st6{display:inline;fill:#FFFFFF;}
</style>
<g id="pen">
	<path class="st0" d="M14.09,19.75c0,0-0.03-3.48,2.39-7.62c0,0-3.59-2.62-5.79-9.85v8.54c0.11,0.02,1.13,0.2,1.64,1.19
		c0.48,0.94,0.1,1.84,0.05,1.95c-0.08,0.19-0.3,0.64-0.81,0.99c-0.55,0.37-1.09,0.39-1.29,0.39c-0.18,0-0.95,0-1.59-0.59
		c-0.43-0.39-0.58-0.85-0.64-1.06C8,13.56,7.76,12.53,8.44,11.64c0.51-0.65,1.2-0.82,1.4-0.86l-0.02-8.5c0,0-2.41,7.85-5.8,9.71
		c0,0,2.35,4.19,2.43,7.77H14.09z"/>
	<path class="st1" d="M3.53,5.8"/>
</g>
<g id="remind" class="st2">
	<path class="st3" d="M9.88,19.75c-2.78-0.03-3.15-2.04-3.15-2.04c-3.49-0.06-4.23-0.84-4.23-0.84c-0.13-0.11-1.23-1.01-1.14-2.41
		c0.03-0.6,0.28-1.06,0.44-1.3c1.54-2.04,2.13-3.63,2.38-4.73c0.05-0.21,0.18-0.54,0.25-1.13c0.34-3.04,0.98-3.48,0.98-3.48
		C6.24,2.67,7.68,2.2,7.68,2.2c0.25-1.87,1.9-1.94,2.2-1.93"/>
	<path class="st4" d="M16.15,3.75"/>
	<path class="st5" d="M8.57,10.26"/>
	<path class="st4" d="M4.83,12.11"/>
	<path class="st4" d="M4.31,13.71"/>
	<path class="st4" d="M6.08,15.99"/>
	<path class="st3" d="M9.83,0.27c0.3-0.01,1.95,0.06,2.2,1.93c0,0,1.44,0.47,2.27,1.62c0,0,0.64,0.44,0.98,3.48
		c0.07,0.59,0.2,0.92,0.25,1.13c0.25,1.1,0.85,2.69,2.38,4.73c0.16,0.24,0.41,0.7,0.44,1.3c0.09,1.39-1.01,2.3-1.14,2.41
		c0,0-0.74,0.78-4.23,0.84c0,0-0.37,2.02-3.15,2.04"/>
	<path class="st5" d="M11.77,10.26"/>
	<path class="st4" d="M15.51,12.11"/>
	<path class="st4" d="M16.03,13.71"/>
	<path class="st4" d="M14.55,16.09"/>
</g>
<g id="Layer_4" class="st2">
	<path class="st4" d="M15.43,8.25h0.57c0.89,0,1.61,0.72,1.61,1.61v8.04c0,0.89-0.72,1.6-1.61,1.6H3.99c-0.89,0-1.61-0.71-1.61-1.6
		V9.86c0-0.89,0.72-1.61,1.61-1.61h0.57"/>
	<circle class="st6" cx="9.82" cy="12.53" r="1.22"/>
	<path class="st6" d="M9.81,12.67L9.81,12.67c-0.35,0-0.64,0.29-0.64,0.64v1.58c0,0.35,0.29,0.64,0.64,0.64h0
		c0.35,0,0.64-0.29,0.64-0.64v-1.58C10.45,12.96,10.17,12.67,9.81,12.67z"/>
	<path class="st4" d="M12.85,5.82v2.43H7.2V5.82c0-1.47,1.19-2.66,2.66-2.66h0.35C11.67,3.16,12.85,4.34,12.85,5.82z"/>
	<path class="st4" d="M15.43,5.94v2.3H4.57v-2.3C4.57,2.94,7,0.5,10,0.5c1.5,0,2.86,0.61,3.84,1.6C14.82,3.08,15.43,4.44,15.43,5.94
		z"/>
</g>
</svg>
