<?xml version="1.0" encoding="utf-8"?>
<!-- Generator: Adobe Illustrator 23.0.1, SVG Export Plug-In . SVG Version: 6.00 Build 0)  -->
<svg version="1.1" xmlns="http://www.w3.org/2000/svg" xmlns:xlink="http://www.w3.org/1999/xlink" x="0px" y="0px"
	 viewBox="0 0 20 20" style="enable-background:new 0 0 20 20;" xml:space="preserve">
<style type="text/css">
	.st0{display:none;}
	.st1{display:inline;fill:none;stroke:#FFFFFF;stroke-width:0.75;stroke-miterlimit:10;}
	.st2{display:inline;fill:none;stroke:#000000;stroke-miterlimit:10;}
	.st3{fill:none;stroke:#FFFFFF;stroke-miterlimit:10;}
	.st4{fill:none;stroke:#000000;stroke-miterlimit:10;}
	.st5{display:inline;fill:#FFFFFF;}
</style>
<g id="pen" class="st0">
	<path class="st1" d="M14.09,19.75c0,0-0.03-3.48,2.39-7.62c0,0-3.59-2.62-5.79-9.85v8.54c0.11,0.02,1.13,0.2,1.64,1.19
		c0.48,0.94,0.1,1.84,0.05,1.95c-0.08,0.19-0.3,0.64-0.81,0.99c-0.55,0.37-1.09,0.39-1.29,0.39c-0.18,0-0.95,0-1.59-0.59
		c-0.43-0.39-0.58-0.85-0.64-1.06C8,13.56,7.76,12.53,8.44,11.64c0.51-0.65,1.2-0.82,1.4-0.86l-0.02-8.5c0,0-2.41,7.85-5.8,9.71
		c0,0,2.35,4.19,2.43,7.77H14.09z"/>
	<path class="st2" d="M3.53,5.8"/>
</g>
<g id="remind">
	<path class="st3" d="M10.03,19.5c-2.72-0.03-3.08-2-3.08-2c-3.41-0.06-4.13-0.82-4.13-0.82c-0.13-0.1-1.2-0.99-1.12-2.35
		c0.03-0.59,0.27-1.04,0.43-1.28c1.5-2,2.09-3.55,2.33-4.63C4.5,8.21,4.63,7.9,4.7,7.32c0.33-2.97,0.96-3.4,0.96-3.4
		c0.81-1.12,2.22-1.58,2.22-1.58c0.24-1.83,1.86-1.9,2.15-1.89"/>
	<path class="st4" d="M16.15,3.75"/>
	<path class="st3" d="M8.75,10.21"/>
	<path class="st4" d="M4.83,12.11"/>
	<path class="st4" d="M4.31,13.71"/>
	<path class="st4" d="M6.08,15.99"/>
	<path class="st3" d="M9.97,0.45c0.29-0.01,1.91,0.06,2.15,1.89c0,0,1.41,0.46,2.22,1.58c0,0,0.63,0.43,0.96,3.4
		c0.07,0.58,0.2,0.9,0.24,1.11c0.24,1.08,0.83,2.63,2.33,4.63c0.16,0.24,0.4,0.69,0.43,1.28c0.08,1.36-0.99,2.25-1.12,2.35
		c0,0-0.72,0.76-4.13,0.82c0,0-0.37,1.97-3.08,2"/>
	<path class="st3" d="M11.87,10.21"/>
	<path class="st4" d="M15.51,12.11"/>
	<path class="st4" d="M16.03,13.71"/>
	<path class="st4" d="M14.55,16.09"/>
</g>
<g id="Layer_4" class="st0">
	<path class="st2" d="M15.43,8.25h0.57c0.89,0,1.61,0.72,1.61,1.61v8.04c0,0.89-0.72,1.6-1.61,1.6H3.99c-0.89,0-1.61-0.71-1.61-1.6
		V9.86c0-0.89,0.72-1.61,1.61-1.61h0.57"/>
	<circle class="st5" cx="9.82" cy="12.53" r="1.22"/>
	<path class="st5" d="M9.81,12.67L9.81,12.67c-0.35,0-0.64,0.29-0.64,0.64v1.58c0,0.35,0.29,0.64,0.64,0.64h0
		c0.35,0,0.64-0.29,0.64-0.64v-1.58C10.45,12.96,10.17,12.67,9.81,12.67z"/>
	<path class="st2" d="M12.85,5.82v2.43H7.2V5.82c0-1.47,1.19-2.66,2.66-2.66h0.35C11.67,3.16,12.85,4.34,12.85,5.82z"/>
	<path class="st2" d="M15.43,5.94v2.3H4.57v-2.3C4.57,2.94,7,0.5,10,0.5c1.5,0,2.86,0.61,3.84,1.6C14.82,3.08,15.43,4.44,15.43,5.94
		z"/>
</g>
</svg>
